<svg id="Layer_1" data-name="Layer 1" xmlns="http://www.w3.org/2000/svg" viewBox="0 0 400 400"><defs><style>.cls-1{fill:#ffb700;}.cls-2{fill:#fff;}</style></defs><path class="cls-1" d="M156.86,207.25a24.14,24.14,0,0,1,5.95-2.46,26,26,0,0,0,12-5.45,21.89,21.89,0,0,1,8.39-4.05c6.51-1.78,13.17-3.06,19.18-6.42,2.33-1.31,5-1.33,7.71-1,3.11.4,6.24.64,9.31,1.21A48.42,48.42,0,0,1,226,191c1.14.38,2.14,1.16,3.29,1.53a14.54,14.54,0,0,0,4.37.93,43.56,43.56,0,0,0,6.93-.64,13,13,0,0,1,10.94,3.26,22,22,0,0,0,5.13,3.7c4.4,1.88,9,3.39,13.48,5,.8.28,1.66.39,2.49.61a62.89,62.89,0,0,1,7.52,2.13,46.71,46.71,0,0,1,7.17,3.93,42.2,42.2,0,0,1,4.31,3.52,11.84,11.84,0,0,1,.91,1l.35-.24c-.91-1.73-1.68-3.55-2.75-5.17-3.6-5.46-8.74-9.21-14.35-12.33A93.55,93.55,0,0,0,249,188.66a146.53,146.53,0,0,0-40-2.53,120.72,120.72,0,0,0-36,7.6c-7,2.72-13.54,6.12-19.12,11.21a25.55,25.55,0,0,0-7,9.62c2-1.59,4.15-3.29,6.33-4.91A23.24,23.24,0,0,1,156.86,207.25Z"/><path class="cls-1" d="M292.86,224c-1.63-4.27-4.17-7.94-8.51-10-2-1-3.86-2.21-5.86-3.18a34.15,34.15,0,0,0-3.91-1.37,58.14,58.14,0,0,1-.74,6.11c-.47,2.05-1.46,2.7-2.71,2.28s-1.38-1.36-.74-3.36c1-3.18.07-5.34-2.95-6.64a39.4,39.4,0,0,0-5.34-2.14A35.28,35.28,0,0,1,247.83,198c-3.29-2.88-7.18-1.37-11.06-.89.64.85,1.12,1.43,1.54,2.06a1.74,1.74,0,0,1-.24,2.57,1.71,1.71,0,0,1-2.64-.41,16.82,16.82,0,0,0-6.38-4.76,49.28,49.28,0,0,0-5.2-2.46,36.06,36.06,0,0,0-5.52-1.42,40.32,40.32,0,0,0-4.66-.56c-2.51-.21-5.16-1-7.5-.44a23,23,0,0,0-15.53,11.57,1.7,1.7,0,0,1-2.23,1,1.63,1.63,0,0,1-1.15-2.16,21.21,21.21,0,0,1,1.51-3.11,16,16,0,0,1,1.16-1.61c-6.24,1.18-11.81,3.09-16.19,7.52a6.88,6.88,0,0,0-2.43,5.35,1.61,1.61,0,0,1-1.66,1.79,1.67,1.67,0,0,1-1.88-1.59,30.55,30.55,0,0,1,0-3.39c-2.86,1-5.65,1.71-8.22,2.89a45.38,45.38,0,0,0-5.74,3.68,13.65,13.65,0,0,0-5.65,6.74c-1,2.74-2.74,5.47-.79,8.47a46.87,46.87,0,0,0,4.14,6c5.88,6.57,13.5,10.52,21.57,13.67A118.52,118.52,0,0,0,207,255.87a145.72,145.72,0,0,0,42.85-2.59c10.59-2.28,20.74-5.74,29.87-11.75,5.22-3.43,9.79-7.54,12.35-13.42C292.61,226.83,293.29,225.1,292.86,224ZM203,206a1.71,1.71,0,0,1,2.5.61c3.27,4.36,7.81,5.86,13,5.72a12.48,12.48,0,0,0,6.65-2.28c1-.68,1.13-1.46.35-2.25-1.62-1.65-3.33-3.21-5-4.78-.44-.4-1.21-.56-1.46-1-.36-.68-.72-1.73-.43-2.25a2.25,2.25,0,0,1,2.11-.73,18.85,18.85,0,0,1,8.76,8.48c.85,1.81.07,3.83-1.74,5.2a16.65,16.65,0,0,1-10.57,3.36,19,19,0,0,1-13.26-5.6,11,11,0,0,1-1.38-1.8A1.76,1.76,0,0,1,203,206Zm19.84,38.66c-.08,1.29-1,1.8-2.23,1.68-3.27-.31-6.53-.71-9.8-1a37.21,37.21,0,0,0-6.5-.16,21.33,21.33,0,0,1-10.11-1.3c-6.66-2.63-13.43-5-20-7.94-6.18-2.75-11.39-7.11-16.57-11.39-2.11-1.74-3.9-3.88-3.72-7,.15-2.79,4.09-7.12,6.85-7.3a2.58,2.58,0,0,1,2,1.19c.5.88-.09,1.63-1,2.24a31.89,31.89,0,0,0-3.65,3,2,2,0,0,0-.08,2.77,12.22,12.22,0,0,0,2.3,2.6c6,4.6,11.79,9.42,18.93,12.16,6,2.29,12,4.56,18,6.74a24.35,24.35,0,0,0,3.91.81c6.82-1.26,13.23.59,19.73.87A1.77,1.77,0,0,1,222.84,244.68Zm42.41-27.79a8.25,8.25,0,0,1-1.48,3c-3.44,3.69-6.84,7.44-10.58,10.81a11.83,11.83,0,0,1-5.73,2.49c-5.73,1-11.5,1.65-17.28,2.26a73.43,73.43,0,0,1-7.42,0c-9.46.76-17.8-2.82-26-6.83-4.33-2.11-7.95-5.16-11.5-8.33-.91-.81-1.28-1.78-.4-2.78s1.91-.79,2.81,0a57.33,57.33,0,0,0,13.18,9.07c10.92,5.51,22.32,6.59,34.22,4.43,3.67-.66,7.41-.94,11.13-1.35a8.81,8.81,0,0,0,5.35-2.26c3-2.89,5.9-5.82,8.67-8.9,1.8-2,2.69-4.3.52-6.78a1.58,1.58,0,0,1,.29-2.42,1.75,1.75,0,0,1,2.57.27A6.9,6.9,0,0,1,265.25,216.89Zm17.38,12.75c-1.9,1.93-3.51,4.14-5.38,6.11a9.8,9.8,0,0,1-3.13,2.25,28.74,28.74,0,0,1-4.65,1.28,1.77,1.77,0,0,1-2.36-1.06,1.72,1.72,0,0,1,1.24-2.37c1.23-.44,2.55-.65,3.77-1.11a6.37,6.37,0,0,0,2.39-1.4c1.85-2,3.46-4.17,5.35-6.11a6.36,6.36,0,0,0,.53-8.83,2.6,2.6,0,0,1-.08-2.28c.47-.93,1.49-1,2.38-.38,2,1.29,2.46,3.35,2.76,5.49a10.27,10.27,0,0,1,0,1.36A8.85,8.85,0,0,1,282.63,229.64Z"/><path d="M297.32,238.74c-.15-5.61-.08-11.23,0-16.85a23.28,23.28,0,0,0-5.05-14.77c-5.05-6.61-11.85-10.94-19.23-14.43-11.78-5.57-24.31-8.42-37.2-9.77a151.13,151.13,0,0,0-41.13,1.18c-12,2-23.54,5.38-34.14,11.51-5.87,3.4-11.15,7.5-14.94,13.28a28.55,28.55,0,0,0-3.78,9.82V243.6a6.14,6.14,0,0,1,.27,1,34.26,34.26,0,0,0,4.69,13.66c5.84,9.89,14.65,16.47,24.66,21.58,12.57,6.42,26.06,9.55,40.06,10.44,17.17,1.08,33.92-1,49.94-7.58,9-3.69,17.28-8.62,24.13-15.66C293.25,259.19,297.61,250,297.32,238.74Zm-143.49-33.8c5.57-5.09,12.15-8.49,19.11-11.21a120.72,120.72,0,0,1,36-7.6,146.53,146.53,0,0,1,40,2.53,93.55,93.55,0,0,1,26.87,9.57c5.61,3.12,10.75,6.87,14.35,12.33,1.07,1.62,1.84,3.44,2.75,5.17l-.35.24a11.84,11.84,0,0,0-.91-1,42.2,42.2,0,0,0-4.31-3.52,46.71,46.71,0,0,0-7.17-3.93,62.89,62.89,0,0,0-7.52-2.13c-.83-.22-1.69-.33-2.49-.61-4.51-1.63-9.07-3.14-13.48-5a22,22,0,0,1-5.13-3.7,13,13,0,0,0-10.94-3.26,43.56,43.56,0,0,1-6.93.64,14.54,14.54,0,0,1-4.37-.93c-1.15-.37-2.15-1.15-3.29-1.53a48.42,48.42,0,0,0-6.64-1.93c-3.07-.57-6.2-.81-9.31-1.21-2.66-.34-5.38-.32-7.71,1-6,3.36-12.67,4.64-19.18,6.42a21.89,21.89,0,0,0-8.39,4.05,26,26,0,0,1-12,5.45,24.14,24.14,0,0,0-5.95,2.46,23.24,23.24,0,0,0-3.68,2.4c-2.18,1.62-4.29,3.32-6.33,4.91A25.47,25.47,0,0,1,153.83,204.94Zm-5.69,15.41a13.65,13.65,0,0,1,5.65-6.74,45.38,45.38,0,0,1,5.74-3.68c2.57-1.18,5.36-1.91,8.22-2.89a30.55,30.55,0,0,0,0,3.39,1.67,1.67,0,0,0,1.88,1.59,1.61,1.61,0,0,0,1.66-1.79,6.88,6.88,0,0,1,2.43-5.35c4.38-4.43,9.95-6.34,16.19-7.52a16,16,0,0,0-1.16,1.61,21.21,21.21,0,0,0-1.51,3.11,1.63,1.63,0,0,0,1.15,2.16,1.7,1.7,0,0,0,2.23-1,23,23,0,0,1,15.53-11.57c2.34-.54,5,.23,7.5.44a40.32,40.32,0,0,1,4.66.56,36.06,36.06,0,0,1,5.52,1.42,49.28,49.28,0,0,1,5.2,2.46,16.82,16.82,0,0,1,6.38,4.76,1.71,1.71,0,0,0,2.64.41,1.74,1.74,0,0,0,.24-2.57c-.42-.63-.9-1.21-1.54-2.06,3.88-.48,7.77-2,11.06.89a35.28,35.28,0,0,0,14.27,7.67,39.4,39.4,0,0,1,5.34,2.14c3,1.3,4,3.46,2.95,6.64-.63,2-.42,3,.74,3.36s2.24-.23,2.71-2.28a58.14,58.14,0,0,0,.74-6.11,34.15,34.15,0,0,1,3.91,1.37c2,1,3.86,2.22,5.86,3.18,4.34,2.1,6.88,5.77,8.51,10,.43,1.12-.25,2.85-.8,4.13-2.56,5.88-7.13,10-12.35,13.42-9.13,6-19.28,9.47-29.87,11.75A145.72,145.72,0,0,1,207,255.87a118.52,118.52,0,0,1-33.93-7.42c-8.07-3.15-15.69-7.1-21.57-13.67a46.87,46.87,0,0,1-4.14-6C145.4,225.82,147.16,223.09,148.14,220.35Zm135.08,43.88a67.92,67.92,0,0,1-23.35,15.18,105,105,0,0,1-40.15,7.49c-16.22,0-31.89-2.91-46.51-10.25-9.07-4.55-17.05-10.48-22.61-19.2a31.53,31.53,0,0,1-5.11-17.51c0-2.11,0-4.22,0-6.75.8,1.06,1.34,1.81,1.93,2.53,4.91,6.08,11.28,10.23,18.24,13.53,11.63,5.52,24,8.42,36.71,9.86a152.44,152.44,0,0,0,32,.26c14.59-1.43,28.73-4.64,41.83-11.48,6.76-3.53,12.79-8,17.25-14.47C294.79,245.4,291.63,255.66,283.22,264.23Z"/><path d="M185.23,220.29c3.55,3.17,7.17,6.22,11.5,8.33,8.23,4,16.57,7.59,26,6.83a73.43,73.43,0,0,0,7.42,0c5.78-.61,11.55-1.3,17.28-2.26a11.83,11.83,0,0,0,5.73-2.49c3.74-3.37,7.14-7.12,10.58-10.81a8.25,8.25,0,0,0,1.48-3,6.9,6.9,0,0,0-1.68-7.28,1.75,1.75,0,0,0-2.57-.27,1.58,1.58,0,0,0-.29,2.42c2.17,2.48,1.28,4.78-.52,6.78-2.77,3.08-5.7,6-8.67,8.9a8.81,8.81,0,0,1-5.35,2.26c-3.72.41-7.46.69-11.13,1.35-11.9,2.16-23.3,1.08-34.22-4.43a57.33,57.33,0,0,1-13.18-9.07c-.9-.83-1.93-1-2.81,0S184.32,219.48,185.23,220.29Z"/><path d="M157.66,224.61c5.18,4.28,10.39,8.64,16.57,11.39,6.54,2.9,13.31,5.31,20,7.94a21.33,21.33,0,0,0,10.11,1.3,37.21,37.21,0,0,1,6.5.16c3.27.25,6.53.65,9.8,1,1.24.12,2.15-.39,2.23-1.68a1.77,1.77,0,0,0-1.9-1.93c-6.5-.28-12.91-2.13-19.73-.87a24.35,24.35,0,0,1-3.91-.81c-6-2.18-12-4.45-18-6.74-7.14-2.74-13-7.56-18.93-12.16a12.22,12.22,0,0,1-2.3-2.6,2,2,0,0,1,.08-2.77,31.89,31.89,0,0,1,3.65-3c.87-.61,1.46-1.36,1-2.24a2.58,2.58,0,0,0-2-1.19c-2.76.18-6.7,4.51-6.85,7.3C153.76,220.73,155.55,222.87,157.66,224.61Z"/><path d="M203.9,210.47a19,19,0,0,0,13.26,5.6,16.65,16.65,0,0,0,10.57-3.36c1.81-1.37,2.59-3.39,1.74-5.2a18.85,18.85,0,0,0-8.76-8.48,2.25,2.25,0,0,0-2.11.73c-.29.52.07,1.57.43,2.25.25.47,1,.63,1.46,1,1.71,1.57,3.42,3.13,5,4.78.78.79.66,1.57-.35,2.25a12.48,12.48,0,0,1-6.65,2.28c-5.22.14-9.76-1.36-13-5.72A1.71,1.71,0,0,0,203,206a1.76,1.76,0,0,0-.48,2.65A11,11,0,0,0,203.9,210.47Z"/><path d="M269.47,239.28a28.74,28.74,0,0,0,4.65-1.28,9.8,9.8,0,0,0,3.13-2.25c1.87-2,3.48-4.18,5.38-6.11a8.85,8.85,0,0,0,2.83-7,10.27,10.27,0,0,0,0-1.36c-.3-2.14-.79-4.2-2.76-5.49-.89-.57-1.91-.55-2.38.38a2.6,2.6,0,0,0,.08,2.28,6.36,6.36,0,0,1-.53,8.83c-1.89,1.94-3.5,4.14-5.35,6.11a6.37,6.37,0,0,1-2.39,1.4c-1.22.46-2.54.67-3.77,1.11a1.72,1.72,0,0,0-1.24,2.37A1.77,1.77,0,0,0,269.47,239.28Z"/><path class="cls-2" d="M179,129.91a4.7,4.7,0,0,0-1.47-.43c-1.33-.16-1.83.34-1.76,2a10.36,10.36,0,0,0,.42,1.49,13.86,13.86,0,0,0,7.09,7.36c.88.41,2.08,1,2.75.11a3.37,3.37,0,0,0,.08-2.66A13.29,13.29,0,0,0,179,129.91Z"/><path class="cls-2" d="M109.69,204.62a6.75,6.75,0,0,1-.71.7,7.29,7.29,0,0,0-2.44,7.74,7,7,0,0,0,6,5.27c3.19.15,3.33,1,3.54,3.52.32,3.92,4.3,6.8,8.19,6.25a7.48,7.48,0,0,0,6.45-8.33,8.41,8.41,0,0,0-2.79-5c-1.32-1.25-1.29-1.93-.05-3.2.34-.34.68-.67,1-1l5.5-5.49-5.1-5.08c-2.14,2.15-4.37,4.42-6.63,6.66-1.08,1.08-2,.92-3.09-.09A21.6,21.6,0,0,0,116,204C112.82,202.73,110.71,203.81,109.69,204.62Z"/><path class="cls-2" d="M205.46,178.81A43.45,43.45,0,0,1,186,171.76c-12-7.54-21.25-17.52-27.12-30.48A35,35,0,0,1,155.56,124a102,102,0,0,0-14,20.38,65.79,65.79,0,0,0-7.41,23.14c-.38,3.59-.3,7.22-.47,10.84-.19,4.29-.32,8.58-.67,12.86a20.34,20.34,0,0,1-1.24,4.58,1.19,1.19,0,0,0,.33,1.45c1.71,1.67,3.37,3.39,5.09,5a1.45,1.45,0,0,0,1.19.36c4-1.6,8.14-1.82,12.31-2s8.43-.07,12.65-.23c9.06-.33,17.49-3,25.55-7a100.33,100.33,0,0,0,20.72-14c.17-.15.33-.31.75-.68C208.51,178.83,207,179,205.46,178.81Z"/><path class="cls-2" d="M216.57,145.07c-7.45-13.39-18-23.49-32.17-29.52A29.91,29.91,0,0,0,173.18,113c-10.47-.18-14.86,6.77-14,15.61.73,7.66,4,14.36,8.3,20.56a66.11,66.11,0,0,0,26.38,22.68c4.5,2.1,9.23,3.59,14.25,3.4a18.22,18.22,0,0,0,6.24-1.31c4.84-2,6.66-6.2,7-11.16,0-.4,0-.8,0-1.2A35.25,35.25,0,0,0,216.57,145.07ZM206,171.38a21.81,21.81,0,0,1-9-1.67c-14.3-5.86-24.58-16-31.3-29.81a24.35,24.35,0,0,1-2.64-12.82,10.5,10.5,0,0,1,8.64-9.79,20.8,20.8,0,0,1,10.91,1.07c7.38,2.51,13.59,6.9,19.12,12.27,2.25,2.18,4.26,4.61,6.33,7,1,1.21,1,2.3.1,3s-1.91.42-2.92-.83c-.18-.22-.35-.44-.53-.65A56.56,56.56,0,0,0,184.51,123a24.77,24.77,0,0,0-9.16-2.43c-5.45-.28-8.74,2.74-8.69,8.18a20.57,20.57,0,0,0,.69,5.06c1.7,6.45,5.24,11.9,9.54,16.88,5.63,6.52,12.15,11.91,20.2,15.24a20.79,20.79,0,0,0,9.87,1.82c3.88-.33,6.54-2.87,6.76-6.74a16.43,16.43,0,0,0-.42-5.43c-.82-2.84-2.06-5.57-3.16-8.33-.46-1.15-.29-2.1.61-2.61a1.72,1.72,0,0,1,2.45.74c2.36,4.38,4.12,9,4.21,13C217.52,166.62,213.23,171.13,206,171.38Zm-21.53-27c-3.61-.44-6.28-2.56-8.58-5.17-2.09-2.36-3.64-5-3.77-7.73,0-4.32,2.8-6.44,6.62-5.44a15.56,15.56,0,0,1,8.12,5.77A13.24,13.24,0,0,1,190,138.9,4.75,4.75,0,0,1,184.47,144.38Z"/><path d="M102.67,209.52v3.11a28.6,28.6,0,0,0,1.41,3.75,10.92,10.92,0,0,0,8.25,5.65c1.12,5.38,4.19,8.87,9.71,9.59a10.25,10.25,0,0,0,10.65-5.14c2.8-4.62,2.11-9.11-1.08-13.13,2.07-2.18,3.86-4.73,6.27-6.37a15,15,0,0,1,7-2.14c5.3-.44,10.64-.5,16-.55a67.05,67.05,0,0,0,28.25-7A105.58,105.58,0,0,0,221,173.44c3.69-3.95,4.39-9,3.85-14.19-1-9.28-5.1-17.24-10.63-24.53a69.3,69.3,0,0,0-25.42-21.19,39.84,39.84,0,0,0-13.07-3.91,1.78,1.78,0,0,1-.43-.18h-5c-1.08.24-2.16.45-3.23.73a14,14,0,0,0-6.15,3.27c-11.27,10.75-20.55,22.9-26.25,37.53a64.55,64.55,0,0,0-4.54,23.4c0,5-.09,9.95-.5,14.89-.21,2.41-1.23,4.74-1.9,7.11a1.21,1.21,0,0,1-.31.49l-6,6c-1.41-.75-2.7-1.53-4-2.14a1.75,1.75,0,0,0-2.54,1c-.36,1,.15,1.75,1.22,2.38a21.6,21.6,0,0,1,3.53,2.53c1.13,1,2,1.17,3.09.09,2.26-2.24,4.49-4.51,6.63-6.66l5.1,5.08-5.5,5.49c-.33.34-.67.67-1,1-1.24,1.27-1.27,1.95.05,3.2a8.41,8.41,0,0,1,2.79,5,7.48,7.48,0,0,1-6.45,8.33c-3.89.55-7.87-2.33-8.19-6.25-.21-2.54-.35-3.37-3.54-3.52a7,7,0,0,1-6-5.27,7.29,7.29,0,0,1,2.44-7.74c1.43-1.25,1.77-2.23,1-3.15s-1.9-.75-3.25.38a11,11,0,0,0-3.78,6.2C102.85,209,102.75,209.26,102.67,209.52ZM214.33,174a18.22,18.22,0,0,1-6.24,1.31c-5,.19-9.75-1.3-14.25-3.4a66.11,66.11,0,0,1-26.38-22.68c-4.33-6.2-7.57-12.9-8.3-20.56-.84-8.84,3.55-15.79,14-15.61a29.91,29.91,0,0,1,11.22,2.51c14.2,6,24.72,16.13,32.17,29.52a35.25,35.25,0,0,1,4.79,16.55c0,.4,0,.8,0,1.2C221,167.78,219.17,171.94,214.33,174Zm-82.26,23.31a1.19,1.19,0,0,1-.33-1.45,20.34,20.34,0,0,0,1.24-4.58c.35-4.28.48-8.57.67-12.86.17-3.62.09-7.25.47-10.84a65.79,65.79,0,0,1,7.41-23.14,102,102,0,0,1,14-20.38,35,35,0,0,0,3.35,17.24c5.87,13,15.16,22.94,27.12,30.48a43.45,43.45,0,0,0,19.43,7.05c1.51.14,3,0,4.87,0-.42.37-.58.53-.75.68a100.33,100.33,0,0,1-20.72,14c-8.06,4-16.49,6.68-25.55,7-4.22.16-8.44.08-12.65.23s-8.35.37-12.31,2a1.45,1.45,0,0,1-1.19-.36C135.44,200.68,133.78,199,132.07,197.29Z"/><path d="M197,169.71c-14.3-5.86-24.58-16-31.3-29.81a24.35,24.35,0,0,1-2.64-12.82,10.5,10.5,0,0,1,8.64-9.79,20.8,20.8,0,0,1,10.91,1.07c7.38,2.51,13.59,6.9,19.12,12.27,2.25,2.18,4.26,4.61,6.33,7,1,1.21,1,2.3.1,3s-1.91.42-2.92-.83c-.18-.22-.35-.44-.53-.65A56.56,56.56,0,0,0,184.51,123a24.77,24.77,0,0,0-9.16-2.43c-5.45-.28-8.74,2.74-8.69,8.18a20.57,20.57,0,0,0,.69,5.06c1.7,6.45,5.24,11.9,9.54,16.88,5.63,6.52,12.15,11.91,20.2,15.24a20.79,20.79,0,0,0,9.87,1.82c3.88-.33,6.54-2.87,6.76-6.74a16.43,16.43,0,0,0-.42-5.43c-.82-2.84-2.06-5.57-3.16-8.33-.46-1.15-.29-2.1.61-2.61a1.72,1.72,0,0,1,2.45.74c2.36,4.38,4.12,9,4.21,13,.11,8.31-4.18,12.82-11.41,13.07A21.81,21.81,0,0,1,197,169.71Z"/><path d="M190,138.9a13.24,13.24,0,0,0-3.12-7.09,15.56,15.56,0,0,0-8.12-5.77c-3.82-1-6.66,1.12-6.62,5.44.13,2.72,1.68,5.37,3.77,7.73,2.3,2.61,5,4.73,8.58,5.17A4.75,4.75,0,0,0,190,138.9Zm-6.74,1.47a13.86,13.86,0,0,1-7.09-7.36,10.36,10.36,0,0,1-.42-1.49c-.07-1.7.43-2.2,1.76-2a4.7,4.7,0,0,1,1.47.43,13.29,13.29,0,0,1,7.11,7.91,3.37,3.37,0,0,1-.08,2.66C185.32,141.36,184.12,140.78,183.24,140.37Z"/></svg>