<svg id="Layer_1" data-name="Layer 1" xmlns="http://www.w3.org/2000/svg" viewBox="0 0 400 400"><defs><style>.cls-1{fill:#ffb700;}.cls-2{fill:#fff;}</style></defs><path class="cls-1" d="M155.61,206.63a24.14,24.14,0,0,1,5.95-2.46,26,26,0,0,0,12-5.45,21.89,21.89,0,0,1,8.39-4.05c6.51-1.78,13.17-3.06,19.18-6.42,2.33-1.31,5-1.33,7.71-1,3.11.39,6.24.64,9.31,1.21a48.42,48.42,0,0,1,6.64,1.93c1.14.38,2.14,1.16,3.29,1.53a14.54,14.54,0,0,0,4.37.93,43.56,43.56,0,0,0,6.93-.64,13,13,0,0,1,10.94,3.26,22.27,22.27,0,0,0,5.13,3.7c4.41,1.88,9,3.39,13.48,5,.8.29,1.66.4,2.49.62a61.08,61.08,0,0,1,7.52,2.13,45.87,45.87,0,0,1,7.17,3.93,41.14,41.14,0,0,1,4.31,3.52,11.84,11.84,0,0,1,.91,1l.35-.25c-.91-1.72-1.68-3.54-2.75-5.16-3.6-5.46-8.74-9.21-14.35-12.33A93.76,93.76,0,0,0,247.7,188a147.33,147.33,0,0,0-40-2.53,121,121,0,0,0-36,7.61c-7,2.71-13.54,6.12-19.11,11.21a25.31,25.31,0,0,0-7,9.62c2-1.59,4.15-3.29,6.33-4.91A23.24,23.24,0,0,1,155.61,206.63Z"/><path class="cls-1" d="M291.61,223.36c-1.63-4.27-4.17-7.94-8.51-10-2-1-3.86-2.22-5.86-3.18a34.15,34.15,0,0,0-3.91-1.37,58.47,58.47,0,0,1-.74,6.11c-.47,2.05-1.46,2.7-2.71,2.28s-1.37-1.36-.74-3.36c1-3.18.07-5.34-2.95-6.65a40.68,40.68,0,0,0-5.34-2.13,35.28,35.28,0,0,1-14.27-7.67c-3.29-2.88-7.18-1.37-11.06-.89.64.85,1.12,1.43,1.54,2.06a1.74,1.74,0,0,1-.24,2.57,1.71,1.71,0,0,1-2.64-.41,16.84,16.84,0,0,0-6.38-4.77,49.2,49.2,0,0,0-5.2-2.45,37.29,37.29,0,0,0-5.52-1.43,42.62,42.62,0,0,0-4.66-.55c-2.51-.22-5.16-1-7.5-.44a23,23,0,0,0-15.53,11.56,1.69,1.69,0,0,1-2.23,1,1.63,1.63,0,0,1-1.15-2.16,20.73,20.73,0,0,1,1.51-3.11,14.9,14.9,0,0,1,1.16-1.61c-6.24,1.17-11.81,3.09-16.19,7.51a6.9,6.9,0,0,0-2.43,5.36,1.61,1.61,0,0,1-1.66,1.79,1.67,1.67,0,0,1-1.88-1.59,30.59,30.59,0,0,1,0-3.39c-2.86,1-5.65,1.71-8.22,2.89a45.38,45.38,0,0,0-5.74,3.68,13.65,13.65,0,0,0-5.65,6.74c-1,2.74-2.74,5.47-.79,8.47a46.87,46.87,0,0,0,4.14,6c5.88,6.57,13.5,10.52,21.57,13.67a118.52,118.52,0,0,0,33.93,7.42,145.72,145.72,0,0,0,42.85-2.59c10.59-2.29,20.74-5.75,29.87-11.75,5.22-3.44,9.79-7.54,12.35-13.42C291.36,226.21,292,224.48,291.61,223.36Zm-89.86-18a1.71,1.71,0,0,1,2.5.61c3.27,4.36,7.81,5.85,13,5.72a12.46,12.46,0,0,0,6.65-2.28c1-.68,1.13-1.46.35-2.25-1.62-1.65-3.33-3.21-5-4.78-.44-.4-1.21-.57-1.46-1-.36-.68-.72-1.73-.43-2.25a2.28,2.28,0,0,1,2.11-.74,18.92,18.92,0,0,1,8.76,8.49c.85,1.81.07,3.83-1.74,5.2a16.71,16.71,0,0,1-10.57,3.36,19,19,0,0,1-13.26-5.6,11,11,0,0,1-1.38-1.8A1.76,1.76,0,0,1,201.75,205.4Zm19.84,38.65c-.08,1.3-1,1.81-2.23,1.69-3.27-.32-6.53-.71-9.8-1a37.21,37.21,0,0,0-6.5-.16,21.33,21.33,0,0,1-10.11-1.3c-6.66-2.64-13.43-5-20-7.95-6.18-2.74-11.39-7.1-16.57-11.38-2.11-1.74-3.9-3.88-3.72-7,.15-2.79,4.09-7.12,6.85-7.3a2.6,2.6,0,0,1,2,1.18c.5.89-.09,1.64-1,2.24a33.06,33.06,0,0,0-3.65,3,2,2,0,0,0-.08,2.77,12.46,12.46,0,0,0,2.3,2.6c6,4.6,11.79,9.42,18.93,12.16q9,3.43,18,6.74a24.57,24.57,0,0,0,3.91.81c6.82-1.26,13.23.59,19.73.87A1.76,1.76,0,0,1,221.59,244.05ZM264,216.27a8.25,8.25,0,0,1-1.48,3c-3.44,3.69-6.84,7.44-10.58,10.81a11.83,11.83,0,0,1-5.73,2.49c-5.73,1-11.5,1.65-17.28,2.26a73.43,73.43,0,0,1-7.42,0c-9.46.76-17.8-2.82-26-6.83-4.33-2.11-7.95-5.17-11.5-8.33-.91-.81-1.28-1.78-.4-2.78s1.91-.79,2.81,0A57.33,57.33,0,0,0,199.57,226c10.92,5.51,22.32,6.59,34.22,4.43,3.67-.66,7.41-.94,11.13-1.35a8.81,8.81,0,0,0,5.35-2.26c3-2.89,5.9-5.82,8.67-8.9,1.8-2,2.69-4.31.52-6.78a1.58,1.58,0,0,1,.29-2.42,1.74,1.74,0,0,1,2.57.27A6.89,6.89,0,0,1,264,216.27ZM281.38,229c-1.9,1.93-3.51,4.14-5.38,6.11a9.8,9.8,0,0,1-3.13,2.25,28.74,28.74,0,0,1-4.65,1.28,1.77,1.77,0,0,1-2.36-1.07,1.72,1.72,0,0,1,1.24-2.37c1.23-.44,2.55-.64,3.77-1.1a6.51,6.51,0,0,0,2.39-1.4c1.85-2,3.46-4.17,5.35-6.12a6.35,6.35,0,0,0,.53-8.82,2.6,2.6,0,0,1-.08-2.28c.47-.93,1.49-.95,2.38-.38,2,1.29,2.46,3.35,2.76,5.49a10.26,10.26,0,0,1,0,1.36A8.86,8.86,0,0,1,281.38,229Z"/><path d="M296.07,238.12c-.14-5.61-.08-11.24,0-16.85A23.28,23.28,0,0,0,291,206.5c-5.05-6.61-11.85-10.94-19.23-14.43-11.78-5.57-24.31-8.42-37.2-9.77a151.13,151.13,0,0,0-41.13,1.18c-12,2-23.54,5.38-34.14,11.51-5.87,3.4-11.15,7.5-14.94,13.28a28.58,28.58,0,0,0-3.78,9.81V243a6.3,6.3,0,0,1,.27,1,34.31,34.31,0,0,0,4.69,13.67c5.84,9.89,14.65,16.47,24.66,21.58,12.57,6.42,26.06,9.55,40.06,10.43,17.17,1.09,33.92-1,49.94-7.57,9-3.69,17.28-8.62,24.13-15.66C292,258.57,296.36,249.33,296.07,238.12Zm-143.49-33.8c5.57-5.09,12.15-8.5,19.11-11.21a121,121,0,0,1,36-7.61,147.33,147.33,0,0,1,40,2.53,93.76,93.76,0,0,1,26.87,9.58c5.61,3.12,10.75,6.87,14.35,12.33,1.07,1.62,1.84,3.44,2.75,5.16l-.35.25a11.84,11.84,0,0,0-.91-1,41.14,41.14,0,0,0-4.31-3.52,45.87,45.87,0,0,0-7.17-3.93,61.08,61.08,0,0,0-7.52-2.13c-.83-.22-1.69-.33-2.49-.62-4.51-1.62-9.07-3.13-13.48-5a22.27,22.27,0,0,1-5.13-3.7,13,13,0,0,0-10.94-3.26,43.56,43.56,0,0,1-6.93.64,14.54,14.54,0,0,1-4.37-.93c-1.15-.37-2.15-1.15-3.29-1.53a48.42,48.42,0,0,0-6.64-1.93c-3.07-.57-6.2-.82-9.31-1.21-2.66-.34-5.38-.32-7.71,1-6,3.36-12.67,4.64-19.18,6.42a21.89,21.89,0,0,0-8.39,4.05,26,26,0,0,1-12,5.45,24.14,24.14,0,0,0-5.95,2.46,23.24,23.24,0,0,0-3.68,2.4c-2.18,1.62-4.29,3.32-6.33,4.91A25.31,25.31,0,0,1,152.58,204.32Zm-5.69,15.41a13.65,13.65,0,0,1,5.65-6.74,45.38,45.38,0,0,1,5.74-3.68c2.57-1.18,5.36-1.91,8.22-2.89a30.59,30.59,0,0,0,0,3.39,1.67,1.67,0,0,0,1.88,1.59,1.61,1.61,0,0,0,1.66-1.79,6.9,6.9,0,0,1,2.43-5.36c4.38-4.42,9.95-6.34,16.19-7.51a14.9,14.9,0,0,0-1.16,1.61,20.73,20.73,0,0,0-1.51,3.11,1.63,1.63,0,0,0,1.15,2.16,1.69,1.69,0,0,0,2.23-1A23,23,0,0,1,204.92,191c2.34-.55,5,.22,7.5.44a42.62,42.62,0,0,1,4.66.55,37.29,37.29,0,0,1,5.52,1.43,49.2,49.2,0,0,1,5.2,2.45,16.84,16.84,0,0,1,6.38,4.77,1.71,1.71,0,0,0,2.64.41,1.74,1.74,0,0,0,.24-2.57c-.42-.63-.9-1.21-1.54-2.06,3.88-.48,7.77-2,11.06.89A35.28,35.28,0,0,0,260.85,205a40.68,40.68,0,0,1,5.34,2.13c3,1.31,4,3.47,2.95,6.65-.63,2-.42,3,.74,3.36s2.24-.23,2.71-2.28a58.47,58.47,0,0,0,.74-6.11,34.15,34.15,0,0,1,3.91,1.37c2,1,3.86,2.21,5.86,3.18,4.34,2.1,6.88,5.77,8.51,10,.43,1.12-.25,2.85-.8,4.13-2.56,5.88-7.13,10-12.35,13.42-9.13,6-19.28,9.46-29.87,11.75a145.72,145.72,0,0,1-42.85,2.59,118.52,118.52,0,0,1-33.93-7.42c-8.07-3.15-15.69-7.1-21.57-13.67a46.87,46.87,0,0,1-4.14-6C144.15,225.2,145.91,222.47,146.89,219.73ZM282,263.61a67.92,67.92,0,0,1-23.35,15.18,105,105,0,0,1-40.15,7.49c-16.22,0-31.89-2.91-46.51-10.25-9.07-4.55-17.05-10.48-22.61-19.2a31.44,31.44,0,0,1-5.1-17.51c0-2.11,0-4.22,0-6.75.8,1.06,1.35,1.81,1.93,2.53,4.91,6.08,11.28,10.23,18.24,13.53,11.63,5.52,24,8.42,36.71,9.85a151.76,151.76,0,0,0,32,.27c14.59-1.43,28.73-4.64,41.84-11.49,6.75-3.52,12.78-8,17.24-14.46C293.54,244.78,290.38,255,282,263.61Z"/><path d="M184,219.67c3.55,3.16,7.17,6.22,11.5,8.33,8.23,4,16.57,7.59,26,6.83a73.43,73.43,0,0,0,7.42,0c5.78-.61,11.55-1.3,17.28-2.26a11.83,11.83,0,0,0,5.73-2.49c3.74-3.37,7.14-7.12,10.58-10.81a8.25,8.25,0,0,0,1.48-3,6.89,6.89,0,0,0-1.68-7.28,1.74,1.74,0,0,0-2.57-.27,1.58,1.58,0,0,0-.29,2.42c2.17,2.47,1.28,4.78-.52,6.78-2.77,3.08-5.7,6-8.67,8.9a8.81,8.81,0,0,1-5.35,2.26c-3.72.41-7.46.69-11.13,1.35-11.9,2.16-23.3,1.08-34.22-4.43a57.33,57.33,0,0,1-13.18-9.07c-.9-.83-1.93-1-2.81,0S183.07,218.86,184,219.67Z"/><path d="M156.41,224c5.18,4.28,10.39,8.64,16.57,11.38,6.54,2.91,13.31,5.31,20,7.95a21.33,21.33,0,0,0,10.11,1.3,37.21,37.21,0,0,1,6.5.16c3.27.25,6.53.64,9.8,1,1.24.12,2.15-.39,2.23-1.69a1.76,1.76,0,0,0-1.9-1.92c-6.5-.28-12.91-2.13-19.73-.87a24.57,24.57,0,0,1-3.91-.81q-9-3.28-18-6.74c-7.14-2.74-13-7.56-18.93-12.16a12.46,12.46,0,0,1-2.3-2.6,2,2,0,0,1,.08-2.77,33.06,33.06,0,0,1,3.65-3c.87-.6,1.46-1.35,1-2.24a2.6,2.6,0,0,0-2-1.18c-2.76.18-6.7,4.51-6.85,7.3C152.51,220.11,154.3,222.25,156.41,224Z"/><path d="M202.65,209.85a19,19,0,0,0,13.26,5.6,16.71,16.71,0,0,0,10.57-3.36c1.81-1.37,2.59-3.39,1.74-5.2a18.92,18.92,0,0,0-8.76-8.49,2.28,2.28,0,0,0-2.11.74c-.29.52.07,1.57.43,2.25.25.46,1,.63,1.46,1,1.71,1.57,3.42,3.13,5,4.78.78.79.66,1.57-.35,2.25a12.46,12.46,0,0,1-6.65,2.28c-5.22.13-9.76-1.36-13-5.72a1.71,1.71,0,0,0-2.5-.61,1.76,1.76,0,0,0-.48,2.65A11,11,0,0,0,202.65,209.85Z"/><path d="M268.22,238.66a28.74,28.74,0,0,0,4.65-1.28,9.8,9.8,0,0,0,3.13-2.25c1.87-2,3.48-4.18,5.38-6.11a8.86,8.86,0,0,0,2.83-7.05,10.26,10.26,0,0,0,0-1.36c-.3-2.14-.79-4.2-2.76-5.49-.89-.57-1.91-.55-2.38.38a2.6,2.6,0,0,0,.08,2.28,6.35,6.35,0,0,1-.53,8.82c-1.89,2-3.5,4.15-5.35,6.12a6.51,6.51,0,0,1-2.39,1.4c-1.22.46-2.54.66-3.77,1.1a1.72,1.72,0,0,0-1.24,2.37A1.77,1.77,0,0,0,268.22,238.66Z"/><path class="cls-2" d="M180.26,123.51c4.69,0,7,2,7.53,6.63a2.12,2.12,0,0,0,3.27,1.63,3,3,0,0,0,.47-4.12q-3.92-3.95-7.85-7.85a6.81,6.81,0,0,0-4.36-2c-3.39-.3-6.84,2.42-7,5.69h8Z"/><path class="cls-2" d="M185.43,145.89q-6.84-6.84-13.69-13.68a6.81,6.81,0,1,0-9.88,9.38c3.77,3.88,7.65,7.66,11.47,11.5,1,1,1.1,2,.31,2.82s-1.84.7-2.83-.27c-1.19-1.17-2.33-2.41-3.56-3.53a6.55,6.55,0,0,0-7.51-1.32,6.78,6.78,0,0,0-2,11.07q8.49,8.56,17.09,17a3.11,3.11,0,0,1,1,2.42c0,2.74,0,5.49,0,8.24h0c0,3,0,6,0,9a2.05,2.05,0,0,0,2.09,2.14,2.12,2.12,0,0,0,2.18-2.07c0-.31,0-.63,0-1,0-5.06,0-10.12,0-15.17a2.17,2.17,0,0,1,1.52-2.27c4.9-2.05,6-7.6,2.27-11.42-2.2-2.24-4.45-4.45-6.67-6.67-.23-.23-.46-.45-.66-.69a1.68,1.68,0,0,1,0-2.38,1.78,1.78,0,0,1,2.48-.13,7.78,7.78,0,0,1,.77.75c4.76,4.75,9.51,9.52,14.28,14.26a14.57,14.57,0,0,0,2.23,1.77,2.27,2.27,0,0,1,1.18,2.06c0,1.35,0,2.7,0,4.06,0,1.53.84,2.51,2.1,2.52a2.24,2.24,0,0,0,2.19-2.47c0-1.47-.09-2.95,0-4.41a2.52,2.52,0,0,1,.92-1.76c3.89-2.2,4.88-7.72.95-11.49C197.55,158.21,191.54,152,185.43,145.89Z"/><path class="cls-2" d="M178,212.11a2.14,2.14,0,0,0-2.11,2c0,.79,0,1.59,0,2.38s0,1.59,0,2.39a2.13,2.13,0,0,0,4.25.08c.07-1.62.07-3.25,0-4.88A2.11,2.11,0,0,0,178,212.11Z"/><path class="cls-2" d="M203.4,115.22a6.73,6.73,0,0,0-8.11-.43,6.83,6.83,0,0,0-2.78,7.54,1.35,1.35,0,0,0,1.55,1.21c3.42-.06,6.84,0,10.27,0s5.3,1.59,5.7,5a2.14,2.14,0,0,0,2.1,2,2.17,2.17,0,0,0,2.19-2.08c.15-1.52,0-2.91-1.4-3.89a6.69,6.69,0,0,1-1.2-1.18l-.12-.1C210.82,122.62,204.21,115.91,203.4,115.22Z"/><path class="cls-2" d="M109.17,221.06a4.41,4.41,0,0,0-1.45,4.62,4.27,4.27,0,0,0,6.82,2.14,8.69,8.69,0,0,0,.7-.66q25.33-25.33,50.68-50.66a4,4,0,0,1,.57-.44l-6.15-6.1c-.16.15-.5.45-.83.78l-28.21,28.2a6.18,6.18,0,0,1-1,.89C125.14,205.05,114.4,215.87,109.17,221.06Z"/><path class="cls-2" d="M217.9,129.71a17.78,17.78,0,0,1-1,2,5.71,5.71,0,0,1-10.39-2.79c-.07-1-.35-1.78-1.45-1.8-2.86,0-5.71,0-8.56,0l-.22.34c1.14,1.09,2.31,2.16,3.44,3.27,3.81,3.79,7.58,7.61,11.4,11.37a6.75,6.75,0,0,0,7.72,1.34,6.87,6.87,0,0,0,3.87-6.71C222.42,133.44,219.93,131.74,217.9,129.71Z"/><path class="cls-2" d="M196.35,132.47c-.26-.27-.56-.5-.82-.73a22.31,22.31,0,0,1-1.38,2.06,5.58,5.58,0,0,1-6.08,1.59,5.49,5.49,0,0,1-3.85-5c-.19-2-1-3.17-2.65-3.23-2.93-.12-5.87,0-9.12,0,.46.73.74,1.24,1.08,1.71a7.48,7.48,0,0,0,.81.88q16.13,16.13,32.24,32.25a7.15,7.15,0,0,0,5.31,2.3c1.78,0,2.34.56,2.36,2.36s0,3.42,0,5.13a2,2,0,0,0,2,2.11,2.08,2.08,0,0,0,2.26-2,9.49,9.49,0,0,0,0-1.07c0-4.26,0-8.52,0-12.77a7.82,7.82,0,0,0-2.44-5.87C209.51,145.65,202.94,139.05,196.35,132.47Z"/><path d="M221.38,128c-2.49-2.35-4.86-4.83-7.28-7.24a1.75,1.75,0,0,0-2.27-.42,1.63,1.63,0,0,0-.84,1.93,2.71,2.71,0,0,0,.58,1,7.78,7.78,0,0,0,1.35,1.34c1.43,1,1.55,2.37,1.4,3.89a2.17,2.17,0,0,1-2.19,2.08,2.14,2.14,0,0,1-2.1-2c-.4-3.46-2.19-5-5.7-5s-6.85,0-10.27,0a1.35,1.35,0,0,1-1.55-1.21,6.83,6.83,0,0,1,2.78-7.54,6.73,6.73,0,0,1,8.11.43c.81.69,1.54,1.5,2.32,2.24.94.89,2,1,2.74.25s.7-1.78-.25-2.83c-2.12-2.36-4.52-4.24-7.74-4.82h-2.86a25.08,25.08,0,0,0-2.7.89c-3.65,1.66-5.67,4.57-6.28,8.8-3.52-4.19-7.58-6.85-13-5s-7.5,6.11-7.08,11.54a28.28,28.28,0,0,0-4.2.37,10.34,10.34,0,0,0-5.24,17.15c.81.89,1.68,1.74,2.61,2.69a5.6,5.6,0,0,1-.63.14c-4.25.78-7.21,3.17-8.45,7.31s-.08,7.85,3.08,10.87l2.56,2.43a10.37,10.37,0,0,0-1.22.88l-28.3,28.29a6.13,6.13,0,0,0-.82.87,1.77,1.77,0,0,0,2.44,2.49,6.18,6.18,0,0,0,1-.89l28.21-28.2c.33-.33.67-.63.83-.78l6.15,6.1a4,4,0,0,0-.57.44q-25.35,25.32-50.68,50.66a8.69,8.69,0,0,1-.7.66,4.27,4.27,0,0,1-6.82-2.14,4.41,4.41,0,0,1,1.45-4.62q7.85-7.78,15.63-15.62c.94-.94,1-2,.28-2.74a1.75,1.75,0,0,0-2.65.07c-5.5,5.48-11,10.93-16.44,16.49a7.68,7.68,0,0,0,.1,10.61c3.2,3.39,8.16,3.33,11.67-.17l50.34-50.33c.33-.33.67-.64,1.2-1.14a23.22,23.22,0,0,0,2,2.17,3,3,0,0,1,1,2.49c-.05,5.13-.07,10.27,0,15.4a7.37,7.37,0,0,0,.83,3.18,5.57,5.57,0,0,0,6.25,2.63,5.69,5.69,0,0,0,4.34-5.48c0-4.77,0-9.55,0-14.33a1.47,1.47,0,0,1,.8-1.51,10.06,10.06,0,0,0,5-7.07c.06-.32.17-.63.33-1.2a9.48,9.48,0,0,0,1.52,1.67c2.26,1.48,2.82,3.52,2.67,6.15a5.49,5.49,0,0,0,5.28,5.57,5.64,5.64,0,0,0,5.94-4.61c.22-1.32.06-2.7.21-4a2.65,2.65,0,0,1,.71-1.59,10.55,10.55,0,0,0,3.73-7.84c0-.67-.06-1.34-.1-2l.33-.16c.17.31.47.62.49,1,.06,1.19,0,2.39.06,3.58a5.59,5.59,0,0,0,3.82,5c3.83,1.32,7.56-1.47,7.6-5.75,0-4.46,0-8.92,0-13.38a10.94,10.94,0,0,0-3.46-8.33c-.65-.63-1.31-1.24-2.16-2,3.26-.41,5.82-1.6,7.48-4a31.06,31.06,0,0,0,2.27-4.92v-2.86C225.68,132.59,223.71,130.22,221.38,128Zm-42.06-10.2a6.81,6.81,0,0,1,4.36,2q3.93,3.92,7.85,7.85a3,3,0,0,1-.47,4.12,2.12,2.12,0,0,1-3.27-1.63c-.58-4.63-2.84-6.62-7.53-6.63h-8C172.48,120.24,175.93,117.52,179.32,117.82Zm23.52,57.86a2.52,2.52,0,0,0-.92,1.76c-.14,1.46,0,2.94,0,4.41a2.24,2.24,0,0,1-2.19,2.47c-1.26,0-2.09-1-2.1-2.52,0-1.36,0-2.71,0-4.06a2.27,2.27,0,0,0-1.18-2.06,14.57,14.57,0,0,1-2.23-1.77c-4.77-4.74-9.52-9.51-14.28-14.26a7.78,7.78,0,0,0-.77-.75,1.78,1.78,0,0,0-2.48.13,1.68,1.68,0,0,0,0,2.38c.2.24.43.46.66.69,2.22,2.22,4.47,4.43,6.67,6.67,3.73,3.82,2.63,9.37-2.27,11.42a2.17,2.17,0,0,0-1.52,2.27c0,5,0,10.11,0,15.17,0,.32,0,.64,0,1a2.12,2.12,0,0,1-2.18,2.07,2.05,2.05,0,0,1-2.09-2.14c0-3,0-6,0-9h0c0-2.75,0-5.5,0-8.24a3.11,3.11,0,0,0-1-2.42q-8.58-8.49-17.09-17a6.78,6.78,0,0,1,2-11.07,6.55,6.55,0,0,1,7.51,1.32c1.23,1.12,2.37,2.36,3.56,3.53,1,1,2.06,1.06,2.83.27s.7-1.8-.31-2.82c-3.82-3.84-7.7-7.62-11.47-11.5a6.81,6.81,0,1,1,9.88-9.38q6.84,6.85,13.69,13.68c6.11,6.11,12.12,12.32,18.36,18.3C207.72,168,206.73,173.48,202.84,175.68Zm15.72-17.61c0,4.25,0,8.51,0,12.77a9.49,9.49,0,0,1,0,1.07,2.08,2.08,0,0,1-2.26,2,2,2,0,0,1-2-2.11c-.05-1.71,0-3.42,0-5.13s-.58-2.37-2.36-2.36a7.15,7.15,0,0,1-5.31-2.3q-16.11-16.14-32.24-32.25a7.48,7.48,0,0,1-.81-.88c-.34-.47-.62-1-1.08-1.71,3.25,0,6.19-.08,9.12,0,1.68.06,2.46,1.21,2.65,3.23a5.49,5.49,0,0,0,3.85,5,5.58,5.58,0,0,0,6.08-1.59,22.31,22.31,0,0,0,1.38-2.06c.26.23.56.46.82.73,6.59,6.58,13.16,13.18,19.77,19.73A7.82,7.82,0,0,1,218.56,158.07Zm.24-14.64a6.75,6.75,0,0,1-7.72-1.34c-3.82-3.76-7.59-7.58-11.4-11.37-1.13-1.11-2.3-2.18-3.44-3.27l.22-.34c2.85,0,5.7,0,8.56,0,1.1,0,1.38.81,1.45,1.8a5.71,5.71,0,0,0,10.39,2.79,17.78,17.78,0,0,0,1-2c2,2,4.52,3.73,4.77,7A6.87,6.87,0,0,1,218.8,143.43Z"/><path d="M178.52,208.54a5.64,5.64,0,0,0-6,4.34,26.06,26.06,0,0,0-.3,3.66h.09c0,.8,0,1.59,0,2.39a5.72,5.72,0,0,0,11.44.07c.06-1.67.06-3.34,0-5A5.73,5.73,0,0,0,178.52,208.54ZM180.13,219a2.13,2.13,0,0,1-4.25-.08c0-.8,0-1.59,0-2.39s0-1.59,0-2.38a2.14,2.14,0,0,1,2.11-2,2.11,2.11,0,0,1,2.14,2C180.2,215.73,180.2,217.36,180.13,219Z"/></svg>