<svg id="Layer_1" data-name="Layer 1" xmlns="http://www.w3.org/2000/svg" viewBox="0 0 400 400"><defs><style>.cls-1{fill:#ffb700;}.cls-2{fill:none;}.cls-3{fill:#fff;}</style></defs><path class="cls-1" d="M154.91,203.85a25.11,25.11,0,0,1,6-2.46,26.09,26.09,0,0,0,12-5.44,21.63,21.63,0,0,1,8.39-4.06c6.5-1.78,13.17-3.06,19.17-6.42,2.33-1.3,5.06-1.32,7.71-1,3.11.4,6.24.64,9.32,1.21a48.69,48.69,0,0,1,6.63,1.93c1.14.39,2.15,1.17,3.29,1.53a14.6,14.6,0,0,0,4.38.93,43.67,43.67,0,0,0,6.93-.64,13,13,0,0,1,10.93,3.27,22.07,22.07,0,0,0,5.14,3.69c4.4,1.88,9,3.39,13.47,5,.8.29,1.67.39,2.49.61a63.58,63.58,0,0,1,7.53,2.13,47.48,47.48,0,0,1,7.16,3.93,41.24,41.24,0,0,1,4.31,3.53,10.21,10.21,0,0,1,.91.95l.36-.24c-.91-1.73-1.69-3.54-2.76-5.17-3.6-5.46-8.73-9.2-14.35-12.33A93.38,93.38,0,0,0,247,185.26a147,147,0,0,0-40-2.53,120.79,120.79,0,0,0-36,7.6c-7,2.72-13.54,6.12-19.11,11.21a25.53,25.53,0,0,0-7,9.63c2-1.59,4.16-3.29,6.33-4.92A24,24,0,0,1,154.91,203.85Z"/><path class="cls-1" d="M290.91,220.58c-1.63-4.26-4.17-7.94-8.5-10-2-1-3.86-2.22-5.86-3.18a34.42,34.42,0,0,0-3.92-1.38,58,58,0,0,1-.73,6.11c-.47,2.05-1.46,2.7-2.72,2.29s-1.37-1.37-.74-3.37c1-3.18.08-5.33-2.95-6.64a40.74,40.74,0,0,0-5.34-2.14,35.16,35.16,0,0,1-14.26-7.66c-3.3-2.89-7.19-1.38-11.06-.9.63.85,1.11,1.44,1.53,2.06a1.75,1.75,0,0,1-.23,2.58,1.73,1.73,0,0,1-2.65-.42,16.89,16.89,0,0,0-6.37-4.76,51.5,51.5,0,0,0-5.21-2.46,38.2,38.2,0,0,0-5.52-1.42,45.24,45.24,0,0,0-4.66-.56c-2.5-.21-5.16-1-7.5-.44a23,23,0,0,0-15.52,11.57,1.71,1.71,0,0,1-2.24,1,1.62,1.62,0,0,1-1.15-2.15,21.86,21.86,0,0,1,1.51-3.12A17.73,17.73,0,0,1,188,194c-6.24,1.18-11.81,3.09-16.19,7.52a6.91,6.91,0,0,0-2.43,5.35,1.62,1.62,0,0,1-1.66,1.8,1.66,1.66,0,0,1-1.87-1.59,28.08,28.08,0,0,1,0-3.4c-2.86,1-5.65,1.71-8.22,2.89a44.37,44.37,0,0,0-5.74,3.69,13.56,13.56,0,0,0-5.65,6.74c-1,2.73-2.74,5.47-.79,8.47a47.07,47.07,0,0,0,4.14,5.95c5.88,6.57,13.5,10.52,21.57,13.68a119.26,119.26,0,0,0,33.94,7.42,146.35,146.35,0,0,0,42.84-2.59c10.59-2.29,20.75-5.75,29.87-11.76,5.22-3.43,9.8-7.54,12.35-13.42C290.67,223.43,291.34,221.7,290.91,220.58Zm-89.86-18a1.71,1.71,0,0,1,2.5.6c3.27,4.36,7.82,5.86,13,5.73a12.47,12.47,0,0,0,6.65-2.29c1-.67,1.13-1.46.36-2.25-1.63-1.64-3.34-3.21-5.05-4.77-.44-.41-1.21-.57-1.46-1-.35-.67-.72-1.73-.43-2.25a2.25,2.25,0,0,1,2.11-.73,18.94,18.94,0,0,1,8.76,8.48c.86,1.81.07,3.83-1.74,5.2a16.63,16.63,0,0,1-10.57,3.37A19,19,0,0,1,202,207.07a10.47,10.47,0,0,1-1.39-1.79A1.76,1.76,0,0,1,201.05,202.63Zm19.85,38.65c-.09,1.29-1,1.81-2.24,1.69-3.26-.32-6.53-.71-9.8-1a39.28,39.28,0,0,0-6.5-.16,21.23,21.23,0,0,1-10.11-1.3c-6.66-2.63-13.43-5-20-7.94-6.18-2.75-11.38-7.11-16.57-11.39-2.11-1.74-3.89-3.88-3.72-7,.16-2.79,4.09-7.12,6.85-7.3a2.61,2.61,0,0,1,2,1.19c.5.89-.09,1.63-1,2.24a32.88,32.88,0,0,0-3.66,3,2,2,0,0,0-.08,2.78,12.77,12.77,0,0,0,2.31,2.6c6,4.59,11.78,9.42,18.93,12.15q9,3.45,18,6.75a25.9,25.9,0,0,0,3.91.8c6.82-1.26,13.24.59,19.73.87A1.77,1.77,0,0,1,220.9,241.28Zm42.4-27.79a7.93,7.93,0,0,1-1.48,3c-3.43,3.7-6.84,7.44-10.58,10.82a11.73,11.73,0,0,1-5.73,2.48c-5.72,1-11.5,1.65-17.28,2.26a70.59,70.59,0,0,1-7.42,0c-9.46.76-17.79-2.81-26-6.82-4.33-2.11-7.95-5.17-11.5-8.34-.91-.81-1.27-1.78-.4-2.78s1.91-.78,2.81,0a57.37,57.37,0,0,0,13.18,9.08c10.93,5.51,22.32,6.58,34.22,4.43,3.67-.67,7.41-.95,11.13-1.35a8.8,8.8,0,0,0,5.35-2.27c3-2.88,5.91-5.82,8.67-8.9,1.8-2,2.69-4.3.52-6.77a1.59,1.59,0,0,1,.29-2.42,1.74,1.74,0,0,1,2.57.26A6.88,6.88,0,0,1,263.3,213.49Zm17.38,12.76c-1.9,1.92-3.51,4.14-5.37,6.1a10,10,0,0,1-3.13,2.25,28.13,28.13,0,0,1-4.66,1.28,1.77,1.77,0,0,1-2.36-1.06,1.71,1.71,0,0,1,1.25-2.37c1.23-.44,2.54-.65,3.76-1.11a6.41,6.41,0,0,0,2.39-1.39c1.85-2,3.47-4.18,5.35-6.12a6.36,6.36,0,0,0,.53-8.83,2.6,2.6,0,0,1-.08-2.28c.47-.92,1.49-.95,2.38-.37,2,1.28,2.46,3.34,2.76,5.48a11.72,11.72,0,0,1-2.82,8.42Z"/><path d="M295.37,235.34c-.14-5.61-.07-11.23,0-16.85a23.27,23.27,0,0,0-5-14.77c-5.05-6.61-11.86-10.94-19.23-14.42-11.78-5.58-24.32-8.43-37.21-9.78a151.55,151.55,0,0,0-41.13,1.18c-12,2-23.54,5.38-34.13,11.51-5.87,3.4-11.16,7.51-15,13.29a28.21,28.21,0,0,0-3.77,9.81v24.9a7.17,7.17,0,0,1,.27,1,34,34,0,0,0,4.68,13.66c5.85,9.9,14.65,16.47,24.66,21.58,12.57,6.42,26.06,9.56,40.06,10.44,17.17,1.08,33.92-1,49.95-7.58,9-3.69,17.27-8.62,24.13-15.66C291.31,255.79,295.67,246.55,295.37,235.34Zm-143.49-33.8c5.57-5.09,12.15-8.49,19.11-11.21a120.79,120.79,0,0,1,36-7.6,147,147,0,0,1,40,2.53,93.38,93.38,0,0,1,26.86,9.57c5.62,3.13,10.75,6.87,14.35,12.33,1.07,1.63,1.85,3.44,2.76,5.17l-.36.24a10.21,10.21,0,0,0-.91-.95,41.24,41.24,0,0,0-4.31-3.53,47.48,47.48,0,0,0-7.16-3.93,63.58,63.58,0,0,0-7.53-2.13c-.82-.22-1.69-.32-2.49-.61-4.51-1.63-9.07-3.14-13.47-5a22.07,22.07,0,0,1-5.14-3.69,13,13,0,0,0-10.93-3.27,43.67,43.67,0,0,1-6.93.64,14.6,14.6,0,0,1-4.38-.93c-1.14-.36-2.15-1.14-3.29-1.53a48.69,48.69,0,0,0-6.63-1.93c-3.08-.57-6.21-.81-9.32-1.21-2.65-.33-5.38-.31-7.71,1-6,3.36-12.67,4.64-19.17,6.42a21.63,21.63,0,0,0-8.39,4.06,26.09,26.09,0,0,1-12,5.44,25.11,25.11,0,0,0-6,2.46,24,24,0,0,0-3.68,2.4c-2.17,1.63-4.29,3.33-6.33,4.92A25.53,25.53,0,0,1,151.88,201.54ZM146.19,217a13.56,13.56,0,0,1,5.65-6.74,44.37,44.37,0,0,1,5.74-3.69c2.57-1.18,5.36-1.91,8.22-2.89a28.08,28.08,0,0,0,0,3.4,1.66,1.66,0,0,0,1.87,1.59,1.62,1.62,0,0,0,1.66-1.8,6.91,6.91,0,0,1,2.43-5.35c4.38-4.43,10-6.34,16.19-7.52a17.73,17.73,0,0,0-1.16,1.61,21.86,21.86,0,0,0-1.51,3.12,1.62,1.62,0,0,0,1.15,2.15,1.71,1.71,0,0,0,2.24-1,23,23,0,0,1,15.52-11.57c2.34-.54,5,.23,7.5.44a45.24,45.24,0,0,1,4.66.56,38.2,38.2,0,0,1,5.52,1.42,51.5,51.5,0,0,1,5.21,2.46,16.89,16.89,0,0,1,6.37,4.76,1.73,1.73,0,0,0,2.65.42,1.75,1.75,0,0,0,.23-2.58c-.42-.62-.9-1.21-1.53-2.06,3.87-.48,7.76-2,11.06.9a35.16,35.16,0,0,0,14.26,7.66,40.74,40.74,0,0,1,5.34,2.14c3,1.31,4,3.46,2.95,6.64-.63,2-.42,3,.74,3.37s2.25-.24,2.72-2.29a58,58,0,0,0,.73-6.11,34.42,34.42,0,0,1,3.92,1.38c2,1,3.86,2.21,5.86,3.18,4.33,2.09,6.87,5.77,8.5,10,.43,1.12-.24,2.85-.8,4.13-2.55,5.88-7.13,10-12.35,13.42-9.12,6-19.28,9.47-29.87,11.76a146.35,146.35,0,0,1-42.84,2.59,119.26,119.26,0,0,1-33.94-7.42c-8.07-3.16-15.69-7.11-21.57-13.68a47.07,47.07,0,0,1-4.14-5.95C143.45,222.43,145.21,219.69,146.19,217Zm135.08,43.88A68.21,68.21,0,0,1,257.92,276a105.16,105.16,0,0,1-40.14,7.48c-16.23,0-31.9-2.91-46.52-10.24-9.07-4.55-17-10.49-22.61-19.21a31.38,31.38,0,0,1-5.1-17.5c0-2.11,0-4.22,0-6.75.8,1,1.35,1.8,1.93,2.52,4.91,6.09,11.28,10.23,18.24,13.53,11.63,5.53,24,8.42,36.72,9.86a152.42,152.42,0,0,0,32,.26c14.59-1.42,28.72-4.64,41.83-11.48C281,241,287,236.52,291.47,230,292.85,242,289.68,252.26,281.27,260.84Z"/><path d="M183.28,216.89c3.55,3.17,7.17,6.23,11.5,8.34,8.24,4,16.57,7.58,26,6.82a70.59,70.59,0,0,0,7.42,0c5.78-.61,11.56-1.29,17.28-2.26a11.73,11.73,0,0,0,5.73-2.48c3.74-3.38,7.15-7.12,10.58-10.82a7.93,7.93,0,0,0,1.48-3,6.88,6.88,0,0,0-1.68-7.28,1.74,1.74,0,0,0-2.57-.26,1.59,1.59,0,0,0-.29,2.42c2.17,2.47,1.28,4.77-.52,6.77-2.76,3.08-5.7,6-8.67,8.9a8.8,8.8,0,0,1-5.35,2.27c-3.72.4-7.46.68-11.13,1.35-11.9,2.15-23.29,1.08-34.22-4.43a57.37,57.37,0,0,1-13.18-9.08c-.9-.82-1.93-1-2.81,0S182.37,216.08,183.28,216.89Z"/><path d="M155.71,221.21c5.19,4.28,10.39,8.64,16.57,11.39,6.54,2.91,13.31,5.31,20,7.94a21.23,21.23,0,0,0,10.11,1.3,39.28,39.28,0,0,1,6.5.16c3.27.26,6.54.65,9.8,1,1.25.12,2.15-.4,2.24-1.69a1.77,1.77,0,0,0-1.91-1.93c-6.49-.28-12.91-2.13-19.73-.87a25.9,25.9,0,0,1-3.91-.8c-6-2.19-12-4.46-18-6.75-7.15-2.73-13-7.56-18.93-12.15a12.77,12.77,0,0,1-2.31-2.6,2,2,0,0,1,.08-2.78,32.88,32.88,0,0,1,3.66-3c.86-.61,1.45-1.35,1-2.24a2.61,2.61,0,0,0-2-1.19c-2.76.18-6.69,4.51-6.85,7.3C151.82,217.33,153.6,219.47,155.71,221.21Z"/><path d="M202,207.07a19,19,0,0,0,13.25,5.61,16.63,16.63,0,0,0,10.57-3.37c1.81-1.37,2.6-3.39,1.74-5.2a18.94,18.94,0,0,0-8.76-8.48,2.25,2.25,0,0,0-2.11.73c-.29.52.08,1.58.43,2.25.25.47,1,.63,1.46,1,1.71,1.56,3.42,3.13,5.05,4.77.77.79.65,1.58-.36,2.25a12.47,12.47,0,0,1-6.65,2.29c-5.21.13-9.76-1.37-13-5.73a1.71,1.71,0,0,0-2.5-.6,1.76,1.76,0,0,0-.48,2.65A10.47,10.47,0,0,0,202,207.07Z"/><path d="M267.52,235.88a28.13,28.13,0,0,0,4.66-1.28,10,10,0,0,0,3.13-2.25c1.86-2,3.47-4.18,5.37-6.1a11.72,11.72,0,0,0,2.82-8.42c-.3-2.14-.78-4.2-2.76-5.48-.89-.58-1.91-.55-2.38.37a2.6,2.6,0,0,0,.08,2.28,6.36,6.36,0,0,1-.53,8.83c-1.88,1.94-3.5,4.14-5.35,6.12a6.41,6.41,0,0,1-2.39,1.39c-1.22.46-2.53.67-3.76,1.11a1.71,1.71,0,0,0-1.25,2.37A1.77,1.77,0,0,0,267.52,235.88Z"/><path class="cls-2" d="M127.87,231.24l.09.08h0l-.09-.08Z"/><path class="cls-2" d="M163.86,174.49c.58-.54,1.17-1.06,1.79-1.54C165,173.43,164.44,174,163.86,174.49Z"/><path class="cls-2" d="M115.46,185.49h0c-1.74,4.12-3.48,8.2-5.12,12.32C112,193.69,113.71,189.6,115.46,185.49Z"/><path class="cls-2" d="M117.1,181.58c-.28.68-.57,1.37-.86,2h0C116.53,183,116.82,182.26,117.1,181.58Z"/><path class="cls-2" d="M151.16,184.66a12.79,12.79,0,0,1-4.42.09A12.79,12.79,0,0,0,151.16,184.66Z"/><path class="cls-2" d="M166.19,143c0,.6.05,1.2.05,1.8C166.24,144.19,166.23,143.59,166.19,143Z"/><path class="cls-2" d="M137.7,182.53c.91.2,1.82.45,2.73.73C139.52,183,138.61,182.73,137.7,182.53Z"/><path class="cls-2" d="M119.87,168.63c.17-1.57.29-3.15.38-4.72C120.16,165.48,120,167.06,119.87,168.63Z"/><path class="cls-2" d="M141.49,122.84c1.7-1.18,3.41-2.35,5.19-3.56C144.9,120.49,143.19,121.66,141.49,122.84Z"/><path class="cls-2" d="M118.46,177.5a1.54,1.54,0,0,1,.07-.54A1.54,1.54,0,0,0,118.46,177.5Z"/><path class="cls-2" d="M118.53,177c.16-.6.3-1.2.41-1.8C118.83,175.76,118.69,176.36,118.53,177Z"/><path class="cls-2" d="M141.17,132.26q0-4.38,0-8.71Q141.16,127.89,141.17,132.26Z"/><path d="M184.07,200.06c-1.26-5.43-3.7-10.39-6.17-15.34a39.43,39.43,0,0,1-4.16-14.23c-.47-5.63-.68-11.28-1-16.92a4.27,4.27,0,0,0-2.21-3.82,1.62,1.62,0,0,1-.66-1.15c-.07-1.87,0-3.74,0-5.62a7.53,7.53,0,0,0-1.69-4.74,9.19,9.19,0,0,0-9-2.81,1.64,1.64,0,0,0-1.25,1.91,1.52,1.52,0,0,0,1.51,1.55c.46,0,.92,0,1.37,0s.92,0,1.38,0a5.1,5.1,0,0,1,1.43.26,4.67,4.67,0,0,1,.65.27,4.28,4.28,0,0,1,.57.37,3.26,3.26,0,0,1,1.23,1.92c0,.11,0,.23.05.35,0,.3,0,.59.07.89,0,.6.05,1.2.05,1.8s0,1.2,0,1.8c0,.9,0,1.8,0,2.7H123.37c0-1.93,0-3.75,0-5.58,0-3.17,1.61-4.79,4.77-4.79h21.72l.39,0c1.54-.14,1.88-.74,1.88-2.69,0-6.89,0-13.78,0-20.67a3.06,3.06,0,0,0-1.12-2.7H149.6c-3.3,2.28-6.53,4.66-9.9,6.81a4.11,4.11,0,0,0-2.16,4.09c.15,3.38,0,6.76,0,10.15v1.46h-2.69c-2.38,0-4.77,0-7.16,0a7.73,7.73,0,0,0-7.94,7.81c0,1.83,0,3.66,0,5.49a1.46,1.46,0,0,1-.6,1.08,4.33,4.33,0,0,0-2.28,4c-.21,5.28-.35,10.58-.76,15.85a39.85,39.85,0,0,1-3.1,12.74l-.06,0c-.33.77-.68,1.53-1.06,2.28-.5,1-1,2-1.49,3a59.26,59.26,0,0,0-4.68,12.31c-.45,2-.75,4-1.12,6v5.74a4.36,4.36,0,0,1,.2.79,37.25,37.25,0,0,0,7.53,19.18h0c.6.78,1.23,1.55,1.9,2.31a3.13,3.13,0,0,0,2.59,1.15h35.35l20.8.15a3.17,3.17,0,0,0,2.59-1.15A37.5,37.5,0,0,0,185,212.55a5.85,5.85,0,0,1,.2-.8V206C184.82,204,184.53,202,184.07,200.06Zm-42.89-76.51a1,1,0,0,1,.31-.71c1.7-1.18,3.41-2.35,5.19-3.56l1.8-1.23V135.2h-7.31v-2.94Q141.17,127.88,141.18,123.55Zm11,29.5h16.86c.19,5,.38,10,.58,15a9.14,9.14,0,0,0-2.42.13,9.5,9.5,0,0,0-1.11.3,9.94,9.94,0,0,0-2.52,1.27,15.91,15.91,0,0,0-2.23,1.9c-.84.85-1.64,1.74-2.44,2.62s-1.6,1.78-2.44,2.62c-.63.64-1.3,1.25-2,1.85s-1.36,1.18-2,1.78l-.28-.23Zm-11.05,1.14c0-.39,0-.77.07-1.15h7.25V181.7c-2.2-.52-4.23-1-6.27-1.45-.88-.18-1.07-.64-1.07-1.48C141.18,170.57,141.17,162.38,141.17,154.19ZM118.53,177c.16-.6.3-1.2.41-1.8s.22-1.21.32-1.82c.25-1.57.45-3.14.61-4.71s.29-3.15.38-4.72c.18-3.16.22-6.32.19-9.48,0-.16,0-.3,0-.43a3,3,0,0,1,.06-.34.78.78,0,0,1,0-.14c.15-.39.47-.54,1-.57h.4c4.73.06,9.46,0,14.2,0h1.33v25.75l-.56-.07-.82-.11a18.06,18.06,0,0,0-2.4-.24h-.53c-2,.12-4,.34-6,.6l-2,.26c-.51.07-1,.14-1.52.18a9.31,9.31,0,0,1-1.49,0,6.21,6.21,0,0,1-2.9-.82,2.26,2.26,0,0,1-.59-.47,1,1,0,0,1-.21-.6A1.54,1.54,0,0,1,118.53,177ZM174,230.34a4.6,4.6,0,0,1-.46.51,2.68,2.68,0,0,1-.58.39,2.16,2.16,0,0,1-.45.15,3.24,3.24,0,0,1-.79.09l-19.68,0s0-.08,0-.12l-18.49,0-.19-.07h0l.19.07H128l-9.89,0a2.58,2.58,0,0,1-2.29-1.14c-.43-.56-.84-1.13-1.23-1.7q-1-1.41-1.8-2.85a33.07,33.07,0,0,1-4.36-13,32.13,32.13,0,0,1-.15-5.38,36.73,36.73,0,0,1,1.05-6.76c0-.13.08-.26.13-.38.3-.78.6-1.56.91-2.33,1.64-4.12,3.38-8.2,5.12-12.32h0c.28-.61.56-1.23.82-1.86h0c.29-.68.58-1.37.86-2,3.63,1.62,4.9,1.95,8.64,1a24.75,24.75,0,0,1,10.15-.41c.6.1,1.21.21,1.81.35.91.2,1.82.45,2.73.73s1.57.43,2.36.62l2.38.55c.54.14,1.06.24,1.57.32a12.79,12.79,0,0,0,4.42-.09c.27-.06.53-.12.79-.2a12.32,12.32,0,0,0,5.7-3.66q1.66-1.8,3.41-3.52c.93-.93,1.85-1.89,2.8-2.79.58-.54,1.17-1.06,1.79-1.54a8.78,8.78,0,0,1,3.39-1.23c.72-.16,1.26.16,1.4,1.15A46.43,46.43,0,0,0,175,187c1.37,2.78,2.73,5.58,3.85,8.46C183.71,208,182.2,219.61,174,230.34Z"/><path class="cls-3" d="M119.26,178.57a6.21,6.21,0,0,0,2.9.82,9.31,9.31,0,0,0,1.49,0c.5,0,1-.11,1.52-.18l2-.26c2-.26,4-.48,6-.6h.53a18.06,18.06,0,0,1,2.4.24l.82.11.56.07V153h-1.33c-4.74,0-9.47,0-14.2,0h-.4c-.56,0-.88.18-1,.57a.78.78,0,0,0,0,.14,3,3,0,0,0-.06.34c0,.13,0,.27,0,.43,0,3.16,0,6.32-.19,9.48-.09,1.57-.21,3.15-.38,4.72s-.36,3.14-.61,4.71c-.1.61-.2,1.21-.32,1.82s-.25,1.2-.41,1.8a1.54,1.54,0,0,0-.07.54,1,1,0,0,0,.21.6A2.26,2.26,0,0,0,119.26,178.57Z"/><path class="cls-3" d="M148.48,135.2V118.05l-1.8,1.23c-1.78,1.21-3.49,2.38-5.19,3.56a1,1,0,0,0-.31.71q0,4.33,0,8.71v2.94Z"/><path class="cls-3" d="M166.18,149.29c0-.9,0-1.8,0-2.7,0-.6,0-1.2,0-1.8s0-1.2-.05-1.8c0-.3,0-.59-.07-.89,0-.12,0-.24-.05-.35a3.26,3.26,0,0,0-1.23-1.92,4.28,4.28,0,0,0-.57-.37,4.67,4.67,0,0,0-.65-.27,5.1,5.1,0,0,0-1.43-.26c-.46,0-.92,0-1.38,0s-.91,0-1.37,0h-9.19l-.39,0H128.14c-3.16,0-4.76,1.62-4.77,4.79,0,1.83,0,3.65,0,5.58Z"/><path class="cls-3" d="M141.15,178.77c0,.84.19,1.3,1.07,1.48,2,.43,4.07.93,6.27,1.45V153h-7.25c0,.38-.07.76-.07,1.15C141.17,162.38,141.18,170.57,141.15,178.77Z"/><path class="cls-3" d="M178.85,195.45c-1.12-2.88-2.48-5.68-3.85-8.46a46.43,46.43,0,0,1-4.56-14.12c-.14-1-.68-1.31-1.4-1.15a8.78,8.78,0,0,0-3.39,1.23c-.62.48-1.21,1-1.79,1.54-1,.9-1.87,1.86-2.8,2.79q-1.74,1.72-3.41,3.52a12.32,12.32,0,0,1-5.7,3.66c-.26.08-.52.14-.79.2a12.79,12.79,0,0,1-4.42.09c-.51-.08-1-.18-1.57-.32l-2.38-.55c-.79-.19-1.58-.38-2.36-.62s-1.82-.53-2.73-.73c-.6-.14-1.21-.25-1.81-.35a24.75,24.75,0,0,0-10.15.41c-3.74.94-5,.61-8.64-1-.28.68-.57,1.37-.86,2h0c-.26.63-.54,1.25-.82,1.86-1.75,4.11-3.49,8.2-5.13,12.32-.31.77-.61,1.55-.91,2.33,0,.12-.09.25-.13.38a36.73,36.73,0,0,0-1.05,6.76,32.13,32.13,0,0,0,.15,5.38,33.07,33.07,0,0,0,4.36,13q.82,1.44,1.8,2.85c.39.57.8,1.14,1.23,1.7a2.58,2.58,0,0,0,2.29,1.14l9.89,0-.09-.08h0l.09.08h5.63l-.19-.07h0l.19.07,18.49,0s0,.08,0,.12l19.68,0a3.24,3.24,0,0,0,.79-.09,2.16,2.16,0,0,0,.45-.15,2.68,2.68,0,0,0,.58-.39,4.6,4.6,0,0,0,.46-.51C182.2,219.61,183.71,208,178.85,195.45Z"/><path class="cls-3" d="M152.22,180.3l.28.23c.67-.6,1.35-1.19,2-1.78s1.34-1.21,2-1.85c.84-.84,1.64-1.73,2.44-2.62s1.6-1.77,2.44-2.62a15.91,15.91,0,0,1,2.23-1.9,9.94,9.94,0,0,1,2.52-1.27,9.5,9.5,0,0,1,1.11-.3,9.14,9.14,0,0,1,2.42-.13c-.2-5-.39-10-.58-15H152.22Z"/></svg>